<svg width="13" height="14" fill="none" xmlns="http://www.w3.org/2000/svg"><path fill-rule="evenodd" clip-rule="evenodd" d="M9.388.538v.525c1.928.15 3.202 1.465 3.204 3.48l.008 5.898c.003 2.197-1.377 3.548-3.59 3.552L3.606 14C1.408 14.003.01 12.619.008 10.416L0 4.586C-.003 2.56 1.226 1.249 3.154 1.072V.546C3.153.24 3.38.007 3.685.007c.304 0 .532.23.533.538v.49l4.106-.006V.54C8.322.232 8.55.001 8.853 0c.298 0 .533.23.534.538ZM1.065 4.803l10.464-.014v-.245c-.03-1.504-.785-2.293-2.14-2.41l.001.538c0 .3-.234.54-.531.54a.527.527 0 0 1-.533-.539v-.566l-4.106.005v.566c0 .302-.227.54-.53.54a.526.526 0 0 1-.534-.538v-.54c-1.348.136-2.094.928-2.092 2.445l.001.218Zm7.503 3.18v.008a.57.57 0 1 0 1.14-.037.58.58 0 0 0-.574-.559.58.58 0 0 0-.566.588Zm.57 3.141a.594.594 0 0 1-.574-.594.583.583 0 0 1 .566-.596h.007a.59.59 0 0 1 .588.594.591.591 0 0 1-.586.596ZM5.72 7.994a.575.575 0 0 0 .596.56.576.576 0 0 0 .545-.603.571.571 0 0 0-.575-.56.597.597 0 0 0-.566.603Zm.598 3.099a.576.576 0 0 1-.595-.56c0-.32.248-.587.566-.601a.57.57 0 0 1 .575.558.576.576 0 0 1-.546.603ZM2.873 8.019a.575.575 0 0 0 .595.559.575.575 0 0 0 .545-.603.57.57 0 0 0-.575-.559.597.597 0 0 0-.565.603Zm.598 3.078a.575.575 0 0 1-.595-.56c0-.321.248-.588.566-.602a.57.57 0 0 1 .574.559.575.575 0 0 1-.545.603Z" fill="#76A713"/></svg>