<svg width="15" height="10" fill="none" xmlns="http://www.w3.org/2000/svg"><path fill-rule="evenodd" clip-rule="evenodd" d="M8.47 4.995v-.296c-.01-1.17-.081-2.214-.203-2.876 0-.012-.133-.668-.217-.887a1.572 1.572 0 0 0-.674-.753A1.667 1.667 0 0 0 6.618 0c-.208.01-.55.114-.796.202L5.62.28C4.272.815 1.696 2.564.71 3.633l-.073.075-.324.35A1.547 1.547 0 0 0 0 5.006c0 .316.096.632.29.887.057.083.15.189.232.279l.316.33C1.925 7.604 4.28 9.15 5.5 9.66c0 .011.758.328 1.12.34h.047c.554 0 1.071-.316 1.336-.826.072-.14.141-.413.194-.653l.095-.453c.108-.73.18-1.847.18-3.073Zm5.277 1.27C14.44 6.265 15 5.7 15 5c0-.698-.56-1.265-1.253-1.265l-3.082.273A.987.987 0 0 0 9.682 5c0 .548.44.993.983.993l3.082.272Z" fill="#fff"/></svg>