<svg width="15" height="13" fill="none" xmlns="http://www.w3.org/2000/svg"><path d="m11.288 7.724-.005.004c-.295.286-.43.7-.363 1.104l.001.007.608 3.366a.239.239 0 0 1-.1.239l-.01.008a.253.253 0 0 1-.27.018l-.005-.003-3.028-1.58a1.275 1.275 0 0 0-.561-.147H7.318l-.036.006a1.056 1.056 0 0 0-.347.115l-3.023 1.583a.3.3 0 0 1-.172.028.26.26 0 0 1-.202-.293l.608-3.36.001-.009a1.266 1.266 0 0 0-.36-1.107L3.784 7.7l-2.47-2.394a.239.239 0 0 1-.06-.25v-.004a.268.268 0 0 1 .211-.18l3.388-.49a1.26 1.26 0 0 0 .986-.69l.002-.004L7.336.623a.227.227 0 0 1 .026-.038L7.396.56 7.43.532l.012-.014h.004l.009-.004.009-.004.024-.01h.157c.081.014.15.065.189.137l1.515 3.051v.002c.183.371.535.627.941.69h.004l3.4.493h.001c.1.015.185.083.22.178a.243.243 0 0 1-.067.25h-.002l-2.558 2.423Z" stroke="#F90"/></svg>